<?xml version="1.0" encoding="UTF-8" standalone="no"?>
<!-- Created with Inkscape (http://www.inkscape.org/) -->

<svg
   xmlns:dc="http://purl.org/dc/elements/1.1/"
   xmlns:cc="http://creativecommons.org/ns#"
   xmlns:rdf="http://www.w3.org/1999/02/22-rdf-syntax-ns#"
   xmlns:svg="http://www.w3.org/2000/svg"
   xmlns="http://www.w3.org/2000/svg"
   xmlns:sodipodi="http://sodipodi.sourceforge.net/DTD/sodipodi-0.dtd"
   xmlns:inkscape="http://www.inkscape.org/namespaces/inkscape"
   width="173.61349mm"
   height="60.502163mm"
   viewBox="0 0 173.61349 60.502163"
   version="1.1"
   id="svg8"
   sodipodi:docname="logo.svg"
   inkscape:version="0.92.1 r15371">
  <defs
     id="defs2" />
  <sodipodi:namedview
     id="base"
     pagecolor="#ffffff"
     bordercolor="#666666"
     borderopacity="1.0"
     inkscape:pageopacity="0.0"
     inkscape:pageshadow="2"
     inkscape:zoom="0.82024387"
     inkscape:cx="-123.58187"
     inkscape:cy="18.442798"
     inkscape:document-units="mm"
     inkscape:current-layer="layer1"
     showgrid="false"
     fit-margin-top="0"
     fit-margin-left="0"
     fit-margin-right="0"
     fit-margin-bottom="0"
     inkscape:window-width="1920"
     inkscape:window-height="1017"
     inkscape:window-x="-8"
     inkscape:window-y="-8"
     inkscape:window-maximized="1" />
  <metadata
     id="metadata5">
    <rdf:RDF>
      <cc:Work
         rdf:about="">
        <dc:format>image/svg+xml</dc:format>
        <dc:type
           rdf:resource="http://purl.org/dc/dcmitype/StillImage" />
        <dc:title></dc:title>
      </cc:Work>
    </rdf:RDF>
  </metadata>
  <g
     inkscape:label="Layer 1"
     inkscape:groupmode="layer"
     id="layer1"
     transform="translate(-12.181116,-93.210829)">
    <g
       aria-label="SUPER"
       transform="matrix(0.26458333,0,0,0.26458333,3.1098352,84.729218)"
       style="font-style:normal;font-variant:normal;font-weight:normal;font-stretch:normal;font-size:96px;line-height:1.25;font-family:'Bump IT UP';-inkscape-font-specification:'Bump IT UP, Normal';font-variant-ligatures:normal;font-variant-caps:normal;font-variant-numeric:normal;font-feature-settings:normal;text-align:start;letter-spacing:0px;word-spacing:0px;writing-mode:lr-tb;text-anchor:start;fill:#000000;fill-opacity:1;stroke:none"
       id="flowRoot29">
      <path
         d="M 34.285156,171.42773 V 146.76107 H 108.28515 V 134.42773 H 34.285156 V 85.0944 q 0,-5.10677 3.565104,-8.671874 3.661459,-3.661459 8.768229,-3.661459 H 132.95182 V 97.427733 H 58.951822 v 12.333337 h 73.999998 v 49.33333 q 0,5.20312 -3.66146,8.76823 -3.66146,3.5651 -8.67187,3.5651 z"
         style="font-style:normal;font-variant:normal;font-weight:normal;font-stretch:normal;font-size:98.66666412px;font-family:'Bump IT UP';-inkscape-font-specification:'Bump IT UP, Normal';font-variant-ligatures:normal;font-variant-caps:normal;font-variant-numeric:normal;font-feature-settings:normal;text-align:start;writing-mode:lr-tb;text-anchor:start;fill:#b58900;fill-opacity:1"
         id="path4559" />
      <path
         d="m 155.30599,171.42773 q -5.20313,0 -8.76823,-3.5651 -3.5651,-3.66146 -3.5651,-8.76823 V 72.761067 h 24.66666 v 74.000003 h 49.33333 V 72.761067 h 24.66667 v 98.666663 z"
         style="font-style:normal;font-variant:normal;font-weight:normal;font-stretch:normal;font-size:98.66666412px;font-family:'Bump IT UP';-inkscape-font-specification:'Bump IT UP, Normal';font-variant-ligatures:normal;font-variant-caps:normal;font-variant-numeric:normal;font-feature-settings:normal;text-align:start;writing-mode:lr-tb;text-anchor:start;fill:#b58900;fill-opacity:1"
         id="path4561" />
      <path
         d="M 325.66015,122.0944 V 97.427733 H 276.32682 V 122.0944 Z m -73.99999,49.33333 V 72.761067 h 98.66666 v 61.666663 q 0,5.20313 -3.66146,8.76823 -3.66146,3.56511 -8.67187,3.56511 h -61.66667 v 24.66666 z"
         style="font-style:normal;font-variant:normal;font-weight:normal;font-stretch:normal;font-size:98.66666412px;font-family:'Bump IT UP';-inkscape-font-specification:'Bump IT UP, Normal';font-variant-ligatures:normal;font-variant-caps:normal;font-variant-numeric:normal;font-feature-settings:normal;text-align:start;writing-mode:lr-tb;text-anchor:start;fill:#b58900;fill-opacity:1"
         id="path4563" />
      <path
         d="m 372.68099,171.42773 q -5.20313,0 -8.76823,-3.5651 -3.5651,-3.66146 -3.5651,-8.76823 V 72.761067 h 98.66666 v 24.666666 h -74 v 12.333337 h 74 v 24.66666 h -74 v 12.33334 h 74 v 24.66666 z"
         style="font-style:normal;font-variant:normal;font-weight:normal;font-stretch:normal;font-size:98.66666412px;font-family:'Bump IT UP';-inkscape-font-specification:'Bump IT UP, Normal';font-variant-ligatures:normal;font-variant-caps:normal;font-variant-numeric:normal;font-feature-settings:normal;text-align:start;writing-mode:lr-tb;text-anchor:start;fill:#b58900;fill-opacity:1"
         id="path4565" />
      <path
         d="M 543.03515,122.0944 V 97.427733 H 493.70182 V 122.0944 Z m -73.99999,49.33333 V 72.761067 h 86.33333 q 5.10677,0 8.67187,3.661459 3.66146,3.661458 3.66146,8.671874 v 37 q 0,5.20312 -3.66146,8.76823 -3.66146,3.5651 -8.67187,3.5651 5.10677,0 8.67187,3.66146 3.66146,3.66146 3.66146,8.67188 v 24.66666 h -24.66667 v -24.66666 h -49.33333 v 24.66666 z"
         style="font-style:normal;font-variant:normal;font-weight:normal;font-stretch:normal;font-size:98.66666412px;font-family:'Bump IT UP';-inkscape-font-specification:'Bump IT UP, Normal';font-variant-ligatures:normal;font-variant-caps:normal;font-variant-numeric:normal;font-feature-settings:normal;text-align:start;writing-mode:lr-tb;text-anchor:start;fill:#b58900;fill-opacity:1"
         id="path4567" />
    </g>
    <g
       aria-label="++"
       transform="matrix(0.26458333,0,0,0.26458333,0.02018926,68.125998)"
       style="font-style:normal;font-weight:normal;font-size:40px;line-height:1.25;font-family:sans-serif;letter-spacing:0px;word-spacing:0px;fill:#000000;fill-opacity:1;stroke:none"
       id="flowRoot4512">
      <path
         d="m 583.70443,113.35699 h 18.45182 V 94.80881 h 15.5612 v 18.54818 h 18.54817 v 15.60937 h -18.54817 v 18.45182 h -15.5612 v -18.45182 h -18.45182 z"
         style="font-style:normal;font-variant:normal;font-weight:900;font-stretch:normal;font-size:98.66666412px;font-family:Arial;-inkscape-font-specification:'Arial, Heavy';font-variant-ligatures:normal;font-variant-caps:normal;font-variant-numeric:normal;font-feature-settings:normal;text-align:start;writing-mode:lr-tb;text-anchor:start;fill:#b58900;fill-opacity:1"
         id="path4585" />
      <path
         d="m 648.83984,113.35699 h 18.45182 V 94.80881 h 15.5612 v 18.54818 h 18.54818 v 15.60937 h -18.54818 v 18.45182 h -15.5612 v -18.45182 h -18.45182 z"
         style="font-style:normal;font-variant:normal;font-weight:900;font-stretch:normal;font-size:98.66666412px;font-family:Arial;-inkscape-font-specification:'Arial, Heavy';font-variant-ligatures:normal;font-variant-caps:normal;font-variant-numeric:normal;font-feature-settings:normal;text-align:start;writing-mode:lr-tb;text-anchor:start;fill:#b58900;fill-opacity:1"
         id="path4587" />
    </g>
    <g
       aria-label="section"
       transform="matrix(0.26458333,0,0,0.26458333,3.9309561,71.518296)"
       style="font-style:normal;font-weight:normal;font-size:40px;line-height:1.25;font-family:sans-serif;letter-spacing:0px;word-spacing:0px;fill:#000000;fill-opacity:1;stroke:none"
       id="flowRoot4520">
      <path
         d="m 295.05273,295.28863 19.46355,-1.83073 q 1.20442,3.46875 3.37239,4.96224 2.16797,1.49349 5.78125,1.49349 3.95052,0 6.11849,-1.6862 1.6862,-1.25261 1.6862,-3.13151 0,-2.11979 -2.21615,-3.27604 -1.58984,-0.81901 -8.43099,-2.02344 -10.21354,-1.78255 -14.21224,-3.27604 -3.95052,-1.54167 -6.69661,-5.15495 -2.69792,-3.61328 -2.69792,-8.23828 0,-5.0586 2.93881,-8.72005 2.9388,-3.66146 8.09374,-5.44401 5.15495,-1.83073 13.82683,-1.83073 9.15364,0 13.48958,1.39713 4.38411,1.39714 7.27474,4.33594 2.9388,2.9388 4.86589,7.94922 l -18.59636,1.83073 q -0.72265,-2.45703 -2.40885,-3.61328 -2.3125,-1.54167 -5.58854,-1.54167 -3.32422,0 -4.86589,1.20443 -1.49349,1.15625 -1.49349,2.84244 0,1.87891 1.92708,2.84245 1.92709,0.96354 8.38282,1.73438 9.77994,1.10807 14.54948,3.08333 4.76953,1.97526 7.27473,5.63672 2.55339,3.66146 2.55339,8.04557 0,4.43229 -2.69792,8.6237 -2.64974,4.19141 -8.43099,6.69661 -5.73307,2.45704 -15.65755,2.45704 -14.01953,0 -19.99349,-3.9987 -5.92578,-3.9987 -7.61198,-11.36979 z"
         style="font-style:normal;font-variant:normal;font-weight:900;font-stretch:normal;font-size:98.66666412px;font-family:Arial;-inkscape-font-specification:'Arial, Heavy';font-variant-ligatures:normal;font-variant-caps:normal;font-variant-numeric:normal;font-feature-settings:normal;text-align:start;writing-mode:lr-tb;text-anchor:start;fill:#b58900;fill-opacity:1"
         id="path4570" />
      <path
         d="m 415.63997,288.73654 h -39.3125 q 0.52995,4.72136 2.55339,7.03386 2.84245,3.32422 7.41927,3.32422 2.89062,0 5.49219,-1.44532 1.58984,-0.91536 3.42057,-3.22786 l 19.31901,1.78255 q -4.43229,7.70833 -10.69531,11.08073 -6.26302,3.32422 -17.97006,3.32422 -10.16536,0 -15.99479,-2.84245 -5.82942,-2.89062 -9.68359,-9.10547 -3.80599,-6.26302 -3.80599,-14.69401 0,-11.99609 7.66016,-19.41536 7.70833,-7.41927 21.24609,-7.41927 10.98437,0 17.34375,3.32422 6.35937,3.32421 9.68359,9.63541 3.32422,6.3112 3.32422,16.42839 z m -19.94531,-9.39453 q -0.57813,-5.68489 -3.08333,-8.14192 -2.45704,-2.45704 -6.50391,-2.45704 -4.67318,0 -7.46745,3.70964 -1.78255,2.3125 -2.26432,6.88932 z"
         style="font-style:normal;font-variant:normal;font-weight:900;font-stretch:normal;font-size:98.66666412px;font-family:Arial;-inkscape-font-specification:'Arial, Heavy';font-variant-ligatures:normal;font-variant-caps:normal;font-variant-numeric:normal;font-feature-settings:normal;text-align:start;writing-mode:lr-tb;text-anchor:start;fill:#b58900;fill-opacity:1"
         id="path4572" />
      <path
         d="m 462.90169,289.4592 18.64453,2.11979 q -1.54167,5.82943 -5.0586,10.11719 -3.51692,4.23958 -9.00911,6.60026 -5.44401,2.36068 -13.875,2.36068 -8.14193,0 -13.58594,-1.49349 -5.39583,-1.54167 -9.29817,-4.91407 -3.90235,-3.42057 -6.11849,-7.99739 -2.21615,-4.57683 -2.21615,-12.14063 0,-7.90104 2.69792,-13.15234 1.97526,-3.85417 5.39583,-6.88932 3.42057,-3.08334 7.03385,-4.57683 5.73308,-2.36067 14.69401,-2.36067 12.52605,0 19.07813,4.48047 6.60026,4.48046 9.25,13.10416 l -18.45182,2.45703 q -0.86719,-3.27604 -3.17969,-4.91406 -2.26432,-1.6862 -6.11849,-1.6862 -4.86589,0 -7.90104,3.51693 -2.98698,3.46875 -2.98698,10.55078 0,6.3112 2.98698,9.58724 2.98698,3.27604 7.61198,3.27604 3.85416,0 6.45573,-1.97526 2.64974,-1.97526 3.95052,-6.07031 z"
         style="font-style:normal;font-variant:normal;font-weight:900;font-stretch:normal;font-size:98.66666412px;font-family:Arial;-inkscape-font-specification:'Arial, Heavy';font-variant-ligatures:normal;font-variant-caps:normal;font-variant-numeric:normal;font-feature-settings:normal;text-align:start;writing-mode:lr-tb;text-anchor:start;fill:#b58900;fill-opacity:1"
         id="path4574" />
      <path
         d="m 514.30663,238.82509 v 19.46354 h 10.79167 v 14.30859 h -10.79167 v 18.16276 q 0,3.27604 0.62631,4.33594 0.96354,1.63802 3.37239,1.63802 2.16797,0 6.07031,-1.25261 l 1.44532,13.53776 q -7.27474,1.58985 -13.58594,1.58985 -7.32292,0 -10.79167,-1.87891 -3.46875,-1.8789 -5.15494,-5.68489 -1.63802,-3.85417 -1.63802,-12.42969 v -18.01823 h -7.22657 v -14.30859 h 7.22657 v -9.39453 z"
         style="font-style:normal;font-variant:normal;font-weight:900;font-stretch:normal;font-size:98.66666412px;font-family:Arial;-inkscape-font-specification:'Arial, Heavy';font-variant-ligatures:normal;font-variant-caps:normal;font-variant-numeric:normal;font-feature-settings:normal;text-align:start;writing-mode:lr-tb;text-anchor:start;fill:#b58900;fill-opacity:1"
         id="path4576" />
      <path
         d="m 535.11914,238.82509 h 19.60807 v 13.34505 h -19.60807 z m 0,19.46354 h 19.60807 v 51.16406 h -19.60807 z"
         style="font-style:normal;font-variant:normal;font-weight:900;font-stretch:normal;font-size:98.66666412px;font-family:Arial;-inkscape-font-specification:'Arial, Heavy';font-variant-ligatures:normal;font-variant-caps:normal;font-variant-numeric:normal;font-feature-settings:normal;text-align:start;writing-mode:lr-tb;text-anchor:start;fill:#b58900;fill-opacity:1"
         id="path4578" />
      <path
         d="m 564.94076,284.01519 q 0,-11.70703 7.90104,-19.27083 7.90104,-7.61198 21.34244,-7.61198 15.36849,0 23.22136,8.91276 6.3112,7.17838 6.3112,17.68099 0,11.80338 -7.85287,19.36718 -7.80469,7.51563 -21.63151,7.51563 -12.33333,0 -19.94531,-6.26302 -9.34635,-7.75651 -9.34635,-20.33073 z m 19.65624,-0.0482 q 0,6.84115 2.7461,10.11719 2.79427,3.27604 6.98568,3.27604 4.23958,0 6.9375,-3.22786 2.74609,-3.22787 2.74609,-10.35808 0,-6.64843 -2.74609,-9.8763 -2.7461,-3.27604 -6.79297,-3.27604 -4.28776,0 -7.08203,3.32422 -2.79428,3.27604 -2.79428,10.02083 z"
         style="font-style:normal;font-variant:normal;font-weight:900;font-stretch:normal;font-size:98.66666412px;font-family:Arial;-inkscape-font-specification:'Arial, Heavy';font-variant-ligatures:normal;font-variant-caps:normal;font-variant-numeric:normal;font-feature-settings:normal;text-align:start;writing-mode:lr-tb;text-anchor:start;fill:#b58900;fill-opacity:1"
         id="path4580" />
      <path
         d="m 633.25586,258.28863 h 18.25911 v 8.33463 q 4.09506,-5.10677 8.28646,-7.27474 4.19141,-2.21614 10.21354,-2.21614 8.14193,0 12.71875,4.86588 4.625,4.81771 4.625,14.9349 v 32.51953 H 667.6543 v -28.13542 q 0,-4.81771 -1.78256,-6.79297 -1.78255,-2.02343 -5.01041,-2.02343 -3.56511,0 -5.78125,2.69791 -2.21615,2.69792 -2.21615,9.6836 v 24.57031 h -19.60807 z"
         style="font-style:normal;font-variant:normal;font-weight:900;font-stretch:normal;font-size:98.66666412px;font-family:Arial;-inkscape-font-specification:'Arial, Heavy';font-variant-ligatures:normal;font-variant-caps:normal;font-variant-numeric:normal;font-feature-settings:normal;text-align:start;writing-mode:lr-tb;text-anchor:start;fill:#b58900;fill-opacity:1"
         id="path4582" />
    </g>
  </g>
</svg>
